<?xml version="1.0" encoding="UTF-8" standalone="no"?>
<svg
   xmlns:xhtml="http://www.w3.org/1999/xhtml"
   xmlns:dc="http://purl.org/dc/elements/1.1/"
   xmlns:cc="http://creativecommons.org/ns#"
   xmlns:rdf="http://www.w3.org/1999/02/22-rdf-syntax-ns#"
   xmlns:svg="http://www.w3.org/2000/svg"
   xmlns="http://www.w3.org/2000/svg"
   xmlns:sodipodi="http://sodipodi.sourceforge.net/DTD/sodipodi-0.dtd"
   xmlns:inkscape="http://www.inkscape.org/namespaces/inkscape"
   class="c_jk c_iz c_ah"
   aria-label="Caching"
   viewBox="0 0 16 16"
   version="1.1"
   id="svg6"
   sodipodi:docname="extension-icon.svg"
   inkscape:version="0.92.3 (2405546, 2018-03-11)">
  <metadata
     id="metadata12">
    <rdf:RDF>
      <cc:Work
         rdf:about="">
        <dc:format>image/svg+xml</dc:format>
        <dc:type
           rdf:resource="http://purl.org/dc/dcmitype/StillImage" />
        <dc:title></dc:title>
      </cc:Work>
    </rdf:RDF>
  </metadata>
  <defs
     id="defs10" />
  <sodipodi:namedview
     pagecolor="#ffffff"
     bordercolor="#666666"
     borderopacity="1"
     objecttolerance="10"
     gridtolerance="10"
     guidetolerance="10"
     inkscape:pageopacity="0"
     inkscape:pageshadow="2"
     inkscape:window-width="1920"
     inkscape:window-height="1017"
     id="namedview8"
     showgrid="false"
     inkscape:zoom="14.75"
     inkscape:cx="8"
     inkscape:cy="7.4237288"
     inkscape:window-x="1912"
     inkscape:window-y="-8"
     inkscape:window-maximized="1"
     inkscape:current-layer="layer2" />
  <xhtml:defs>
    <xhtml:style
       type="text/css" />
  </xhtml:defs>
  <g
     inkscape:groupmode="layer"
     id="layer2"
     inkscape:label="Layer 2">
    <rect
       style="fill:#4177ad;fill-opacity:1;stroke:#4177ad;stroke-width:6.08499289;stroke-linejoin:round;stroke-miterlimit:4;stroke-dasharray:none;stroke-opacity:1"
       id="rect4533"
       width="12.915007"
       height="12.915007"
       x="1.5424967"
       y="1.5424967" />
  </g>
  <g
     inkscape:groupmode="layer"
     id="layer1"
     inkscape:label="Layer 1">
    <g
       id="g4527"
       transform="translate(-5e-4,10e-4)"
       style="stroke:none;fill:#ffffff;fill-opacity:1">
      <path
         id="path2"
         d="m 11.243,10.987 h 1.11 v 1.11 h -1.11 z m 0,-4.802 h 1.11 v 1.11 h -1.11 z"
         inkscape:connector-curvature="0"
         style="stroke:none;fill:#ffffff;fill-opacity:1" />
      <path
         id="path4"
         d="M 14.523,4.848 A 1.033,1.033 0 0 0 14.411,4.419 H 14.4 L 12.264,1.651 H 3.745 L 1.58,4.419 H 1.595 A 0.9,0.9 0 0 0 1.478,4.849 V 8.634 A 0.914,0.914 0 0 0 1.633,9.142 0.914,0.914 0 0 0 1.479,9.648 v 3.785 a 0.915,0.915 0 0 0 0.914,0.914 h 11.215 a 0.915,0.915 0 0 0 0.914,-0.914 V 9.649 a 1.168,1.168 0 0 0 -0.149,-0.517 0.907,0.907 0 0 0 0.149,-0.5 z m -1.092,8.407 H 2.571 V 9.827 h 10.86 z m 0,-4.8 H 2.571 V 5.026 h 10.86 z"
         inkscape:connector-curvature="0"
         style="stroke:none;fill:#ffffff;fill-opacity:1" />
    </g>
  </g>
</svg>
